<mxfile host="app.diagrams.net" modified="2024-01-10T10:33:56.680Z" agent="Mozilla/5.0 (Windows NT 10.0; Win64; x64) AppleWebKit/537.36 (KHTML, like Gecko) Chrome/119.0.0.0 Safari/537.36" version="22.1.18" etag="CcIyD0oMQSVPvejN8O9z" type="github">
  <diagram name="Side-1" id="HsFZ83aV1U4z8wKov4MZ">
    <mxGraphModel>
      <root>
        <mxCell id="0" />
        <mxCell id="1" parent="0" />
      </root>
    </mxGraphModel>
  </diagram>
</mxfile>
